<svg width="30" height="30" viewBox="0 0 30 30" fill="none" xmlns="http://www.w3.org/2000/svg">
<path d="M22.7109 18.5312L18.8672 14.6875L20.6172 12.9375L22.4297 11.125C23.2109 10.3438 23.2109 9.09375 22.4297 8.3125L21.7109 7.59375C21.3359 7.21875 20.8047 7 20.3047 7C19.7734 7 19.2734 7.21875 18.8984 7.59375L17.0859 9.40625L15.3359 11.1562L14.2109 10L11.4922 7.3125C11.3047 7.125 11.0547 7 10.8047 7C10.5547 7 10.3047 7.125 10.1172 7.3125L7.30469 10.125C6.89844 10.5 6.89844 11.125 7.30469 11.5L10.4297 14.6562L11.1484 15.3438L7.61719 18.875L7.02344 22.25C6.96094 22.6562 7.27344 23 7.67969 23C7.71094 23 7.74219 23 7.77344 23L11.1484 22.4062L14.6797 18.875L18.5234 22.7188C18.7109 22.9062 18.9609 23 19.2109 23C19.4609 23 19.7109 22.9062 19.9297 22.7188L22.7109 19.9062C23.1172 19.5312 23.1172 18.9062 22.7109 18.5312ZM19.9609 8.65625C20.0859 8.53125 20.2109 8.5 20.3047 8.5C20.3672 8.5 20.5234 8.53125 20.6484 8.65625L21.3672 9.375C21.4922 9.5 21.4922 9.65625 21.4922 9.71875C21.4922 9.8125 21.4922 9.9375 21.3672 10.0625L19.7422 11.6875L18.3359 10.2812L19.9609 8.65625ZM11.4922 13.5938L8.71094 10.8125L10.8047 8.71875L12.0234 9.9375L11.3359 10.625C11.1484 10.8125 11.1484 11.1562 11.3359 11.3438L11.6797 11.6875C11.8672 11.875 12.2109 11.875 12.3984 11.6875L13.0859 11L13.1484 11.0625L14.2734 12.2188L12.2109 14.2812L11.4922 13.5938ZM10.4297 21.0312L8.71094 21.3125L8.99219 19.5938L17.2734 11.3438L18.6797 12.75L10.4297 21.0312ZM19.2109 21.3125L15.7422 17.8125L17.8047 15.75L19.0234 16.9375L18.3359 17.625C18.1484 17.8125 18.1484 18.1562 18.3359 18.3438L18.6797 18.6875C18.8672 18.875 19.2109 18.875 19.3984 18.6875L20.0859 18L21.3047 19.2188L19.2109 21.3125Z" fill="#929292"/>
</svg>
