<svg width="30" height="30" viewBox="0 0 30 30" fill="none" xmlns="http://www.w3.org/2000/svg">
<path d="M17.7812 16.5C16.875 16.5 16.4688 17 15 17C13.5 17 13.0938 16.5 12.1875 16.5C9.875 16.5 8 18.4062 8 20.7188V21.5C8 22.3438 8.65625 23 9.5 23H20.5C21.3125 23 22 22.3438 22 21.5V20.7188C22 18.4062 20.0938 16.5 17.7812 16.5ZM20.5 21.5H9.5V20.7188C9.5 19.2188 10.6875 18 12.1875 18C12.6562 18 13.375 18.5 15 18.5C16.5938 18.5 17.3125 18 17.7812 18C19.2812 18 20.5 19.2188 20.5 20.7188V21.5ZM15 16C17.4688 16 19.5 14 19.5 11.5C19.5 9.03125 17.4688 7 15 7C12.5 7 10.5 9.03125 10.5 11.5C10.5 14 12.5 16 15 16ZM15 8.5C16.625 8.5 18 9.875 18 11.5C18 13.1562 16.625 14.5 15 14.5C13.3438 14.5 12 13.1562 12 11.5C12 9.875 13.3438 8.5 15 8.5Z" fill="#929292"/>
</svg>
