<svg width="30" height="30" viewBox="0 0 30 30" fill="none" xmlns="http://www.w3.org/2000/svg">
<rect width="30" height="30" fill="#797979"/>
<path d="M21.8813 7.71865L18.9438 7.0624C18.2563 6.90615 17.5688 7.2499 17.3188 7.8749L15.9438 11.0624C15.6938 11.6249 15.85 12.3124 16.35 12.7187L17.6 13.7499C16.725 15.3749 15.35 16.7187 13.725 17.6249L12.6938 16.3749C12.2875 15.8749 11.6 15.7187 11.0375 15.9687L7.85 17.3124C7.225 17.5937 6.88125 18.2812 7.0375 18.9687L7.69375 21.9062C7.85 22.5624 8.44375 22.9999 9.1 22.9999C16.7563 22.9999 23.0063 16.8124 23.0063 9.1249C23.0063 8.46865 22.5375 7.8749 21.8813 7.71865ZM9.1625 21.4999L8.50625 18.6874L11.5688 17.3749L13.3188 19.4999C16.4125 18.0312 18.0063 16.4374 19.475 13.3437L17.35 11.5937L18.6625 8.53115L21.5063 9.1874C21.475 15.9687 15.9438 21.4687 9.1625 21.4999Z" fill="#C8C8C8"/>
</svg>
