<svg width="30" height="30" viewBox="0 0 30 30" fill="none" xmlns="http://www.w3.org/2000/svg">
<path d="M22.6875 18.5312L18.8438 14.6875L20.5938 12.9375L22.4062 11.125C23.1875 10.3438 23.1875 9.09375 22.4062 8.3125L21.6875 7.59375C21.3125 7.21875 20.7812 7 20.2812 7C19.75 7 19.25 7.21875 18.875 7.59375L17.0625 9.40625L15.3125 11.1562L14.1875 10L11.4688 7.3125C11.2812 7.125 11.0312 7 10.7812 7C10.5312 7 10.2812 7.125 10.0938 7.3125L7.28125 10.125C6.875 10.5 6.875 11.125 7.28125 11.5L10.4062 14.6562L11.125 15.3438L7.59375 18.875L7 22.25C6.9375 22.6562 7.25 23 7.65625 23C7.6875 23 7.71875 23 7.75 23L11.125 22.4062L14.6562 18.875L18.5 22.7188C18.6875 22.9062 18.9375 23 19.1875 23C19.4375 23 19.6875 22.9062 19.9062 22.7188L22.6875 19.9062C23.0938 19.5312 23.0938 18.9062 22.6875 18.5312ZM19.9375 8.65625C20.0625 8.53125 20.1875 8.5 20.2812 8.5C20.3438 8.5 20.5 8.53125 20.625 8.65625L21.3438 9.375C21.4688 9.5 21.4688 9.65625 21.4688 9.71875C21.4688 9.8125 21.4688 9.9375 21.3438 10.0625L19.7188 11.6875L18.3125 10.2812L19.9375 8.65625ZM11.4688 13.5938L8.6875 10.8125L10.7812 8.71875L12 9.9375L11.3125 10.625C11.125 10.8125 11.125 11.1562 11.3125 11.3438L11.6562 11.6875C11.8438 11.875 12.1875 11.875 12.375 11.6875L13.0625 11L13.125 11.0625L14.25 12.2188L12.1875 14.2812L11.4688 13.5938ZM10.4062 21.0312L8.6875 21.3125L8.96875 19.5938L17.25 11.3438L18.6562 12.75L10.4062 21.0312ZM19.1875 21.3125L15.7188 17.8125L17.7812 15.75L19 16.9375L18.3125 17.625C18.125 17.8125 18.125 18.1562 18.3125 18.3438L18.6562 18.6875C18.8438 18.875 19.1875 18.875 19.375 18.6875L20.0625 18L21.2812 19.2188L19.1875 21.3125Z" fill="#C8C8C8"/>
</svg>
