<svg width="30" height="30" viewBox="0 0 30 30" fill="none" xmlns="http://www.w3.org/2000/svg">
<rect width="30" height="30" fill="#797979"/>
<path d="M22.9374 20.9375L20.6562 11.8125C20.5312 11.3438 20.1249 11.0312 19.6874 11.0312H17.4062C17.6249 10.625 17.7499 10.2188 17.7499 9.78125C17.7499 8.25 16.4999 7.03125 14.9999 7.03125C13.4687 7.03125 12.2499 8.25 12.2499 9.78125C12.2499 10.2188 12.3437 10.625 12.5624 11.0312H10.2812C9.84368 11.0312 9.43743 11.3438 9.31243 11.8125L7.03118 20.9375C6.78118 22 7.49993 23 8.49993 23H21.4687C22.4687 23 23.1874 22 22.9374 20.9375ZM13.7499 9.75C13.7499 9.0625 14.2812 8.5 14.9999 8.5C15.6874 8.5 16.2499 9.0625 16.2499 9.75C16.2499 10.4688 15.6874 11 14.9999 11C14.2812 11 13.7499 10.4688 13.7499 9.75ZM21.4374 21.5H8.53118C8.49993 21.5 8.46868 21.4062 8.49993 21.3125L10.6874 12.5H19.2812L21.4687 21.3125C21.4999 21.4062 21.4687 21.5 21.4374 21.5Z" fill="#C8C8C8"/>
</svg>
