<svg width="30" height="30" viewBox="0 0 30 30" fill="none" xmlns="http://www.w3.org/2000/svg">
<path d="M22.875 7.71865L19.9375 7.0624C19.25 6.90615 18.5625 7.2499 18.3125 7.8749L16.9375 11.0624C16.6875 11.6249 16.8437 12.3124 17.3437 12.7187L18.5937 13.7499C17.7187 15.3749 16.3437 16.7187 14.7187 17.6249L13.6875 16.3749C13.2812 15.8749 12.5937 15.7187 12.0312 15.9687L8.84375 17.3124C8.21875 17.5937 7.875 18.2812 8.03125 18.9687L8.6875 21.9062C8.84375 22.5624 9.4375 22.9999 10.0937 22.9999C17.75 22.9999 24 16.8124 24 9.1249C24 8.46865 23.5312 7.8749 22.875 7.71865ZM10.1562 21.4999L9.5 18.6874L12.5625 17.3749L14.3125 19.4999C17.4062 18.0312 19 16.4374 20.4687 13.3437L18.3437 11.5937L19.6562 8.53115L22.5 9.1874C22.4687 15.9687 16.9375 21.4687 10.1562 21.4999Z" fill="#929292"/>
</svg>
