<svg width="30" height="30" viewBox="0 0 30 30" fill="none" xmlns="http://www.w3.org/2000/svg">
<path d="M23.9375 20.9375L21.6563 11.8125C21.5313 11.3438 21.125 11.0312 20.6875 11.0312H18.4063C18.625 10.625 18.75 10.2188 18.75 9.78125C18.75 8.25 17.5 7.03125 16 7.03125C14.4688 7.03125 13.25 8.25 13.25 9.78125C13.25 10.2188 13.3438 10.625 13.5625 11.0312H11.2813C10.8438 11.0312 10.4375 11.3438 10.3125 11.8125L8.03125 20.9375C7.78125 22 8.5 23 9.5 23H22.4688C23.4688 23 24.1875 22 23.9375 20.9375ZM14.75 9.75C14.75 9.0625 15.2813 8.5 16 8.5C16.6875 8.5 17.25 9.0625 17.25 9.75C17.25 10.4688 16.6875 11 16 11C15.2813 11 14.75 10.4688 14.75 9.75ZM22.4375 21.5H9.53125C9.5 21.5 9.46875 21.4062 9.5 21.3125L11.6875 12.5H20.2813L22.4688 21.3125C22.5 21.4062 22.4688 21.5 22.4375 21.5Z" fill="#929292"/>
</svg>
