<svg width="30" height="30" viewBox="0 0 30 30" fill="none" xmlns="http://www.w3.org/2000/svg">
<path d="M12.25 17.5938V19C12.25 19.9688 13.0312 20.75 14 20.75H16C16.9375 20.75 17.75 19.9688 17.75 19V17.5938C18.3125 17.3125 18.75 16.7188 18.75 16V13.75C18.75 12.875 18.1875 12.0938 17.4375 11.7188C17.7812 11.25 18 10.6562 18 10C18 8.375 16.625 7 15 7C13.3438 7 12 8.375 12 10C12 10.6562 12.1875 11.25 12.5312 11.7188C11.7812 12.0938 11.25 12.875 11.25 13.75V16C11.25 16.7188 11.6562 17.3125 12.25 17.5938ZM15 8.5C15.8125 8.5 16.5 9.1875 16.5 10C16.5 10.8438 15.8125 11.5 15 11.5C14.1562 11.5 13.5 10.8438 13.5 10C13.5 9.1875 14.1562 8.5 15 8.5ZM12.75 13.75C12.75 13.3438 13.0625 13 13.5 13H16.5C16.9062 13 17.25 13.3438 17.25 13.75V16C17.25 16.1562 17.125 16.25 17 16.25H16.25V19C16.25 19.1562 16.125 19.25 16 19.25H14C13.8438 19.25 13.75 19.1562 13.75 19V16.25H13C12.8438 16.25 12.75 16.1562 12.75 16V13.75ZM19.2812 17.5C19.125 17.7188 18.9688 17.9375 18.75 18.125V18.5938C20.4062 18.9062 21.5 19.4375 21.5 20.0312C21.5 20.9688 18.5625 21.7812 15 21.7812C11.4062 21.7812 8.5 20.9688 8.5 20C8.5 19.4375 9.5625 18.9062 11.25 18.5938V18.125C11 17.9375 10.8438 17.7188 10.6875 17.5C8.46875 18.0312 7 18.9375 7 20C7 21.6875 10.5625 23 15 23C19.4062 23 23 21.6875 23 20C23 18.9375 21.5 18.0312 19.2812 17.5Z" fill="#929292"/>
</svg>
