<svg width="30" height="30" viewBox="0 0 30 30" fill="none" xmlns="http://www.w3.org/2000/svg">
<path d="M22.875 12.2812C23.0312 12.125 23.0312 11.9062 22.875 11.75L19.75 8.625C19.5938 8.46875 19.3438 8.46875 19.2188 8.625L18.5938 9.25C18.4375 9.375 18.4375 9.625 18.5938 9.78125L20.1875 11.25H7.375C7.15625 11.25 7 11.4375 7 11.625V12.375C7 12.5938 7.15625 12.75 7.375 12.75H20.1875L18.5938 14.25C18.4375 14.4062 18.4375 14.6562 18.5938 14.7812L19.2188 15.4062C19.3438 15.5625 19.5938 15.5625 19.75 15.4062L22.875 12.2812ZM7.09375 18.2812L10.2188 21.4062C10.375 21.5625 10.625 21.5625 10.75 21.4062L11.375 20.7812C11.5312 20.6562 11.5312 20.4062 11.375 20.25L9.78125 18.75H22.625C22.8125 18.75 23 18.5938 23 18.375V17.625C23 17.4375 22.8125 17.25 22.625 17.25H9.78125L11.375 15.7812C11.5312 15.625 11.5312 15.375 11.375 15.25L10.75 14.625C10.625 14.4688 10.375 14.4688 10.2188 14.625L7.09375 17.75C6.9375 17.9062 6.9375 18.125 7.09375 18.2812Z" fill="#929292"/>
</svg>
