<svg width="30" height="30" viewBox="0 0 30 30" fill="none" xmlns="http://www.w3.org/2000/svg">
<path d="M12.625 19H11.375C11.1562 19 11 19.1875 11 19.375V20.625C11 20.8438 11.1562 21 11.375 21H12.625C12.8125 21 13 20.8438 13 20.625V19.375C13 19.1875 12.8125 19 12.625 19ZM12.625 13H11.375C11.1562 13 11 13.1875 11 13.375V14.625C11 14.8438 11.1562 15 11.375 15H12.625C12.8125 15 13 14.8438 13 14.625V13.375C13 13.1875 12.8125 13 12.625 13ZM9.625 13H8.375C8.15625 13 8 13.1875 8 13.375V14.625C8 14.8438 8.15625 15 8.375 15H9.625C9.8125 15 10 14.8438 10 14.625V13.375C10 13.1875 9.8125 13 9.625 13ZM9.625 19H8.375C8.15625 19 8 19.1875 8 19.375V20.625C8 20.8438 8.15625 21 8.375 21H9.625C9.8125 21 10 20.8438 10 20.625V19.375C10 19.1875 9.8125 19 9.625 19ZM9.625 16H8.375C8.15625 16 8 16.1875 8 16.375V17.625C8 17.8438 8.15625 18 8.375 18H9.625C9.8125 18 10 17.8438 10 17.625V16.375C10 16.1875 9.8125 16 9.625 16ZM12.625 16H11.375C11.1562 16 11 16.1875 11 16.375V17.625C11 17.8438 11.1562 18 11.375 18H12.625C12.8125 18 13 17.8438 13 17.625V16.375C13 16.1875 12.8125 16 12.625 16ZM21.625 19H20.375C20.1562 19 20 19.1875 20 19.375V20.625C20 20.8438 20.1562 21 20.375 21H21.625C21.8125 21 22 20.8438 22 20.625V19.375C22 19.1875 21.8125 19 21.625 19ZM21.625 16H20.375C20.1562 16 20 16.1875 20 16.375V17.625C20 17.8438 20.1562 18 20.375 18H21.625C21.8125 18 22 17.8438 22 17.625V16.375C22 16.1875 21.8125 16 21.625 16ZM24.25 13H21V7.75C21 7.34375 20.6562 7 20.25 7H13.75C13.3125 7 13 7.34375 13 7.75V10H12V7.5C12 7.25 11.75 7 11.5 7H11C10.7188 7 10.5 7.25 10.5 7.5V10H8.5V7.5C8.5 7.25 8.25 7 8 7H7.5C7.21875 7 7 7.25 7 7.5V10H5.75C5.3125 10 5 10.3438 5 10.75V22.5C5 22.7812 5.21875 23 5.5 23H6C6.25 23 6.5 22.7812 6.5 22.5V11.5H14.5V8.5H19.5V14.5H23.5V22.5C23.5 22.7812 23.7188 23 24 23H24.5C24.75 23 25 22.7812 25 22.5V13.75C25 13.3438 24.6562 13 24.25 13ZM17.625 10H16.375C16.1562 10 16 10.1875 16 10.375V11.625C16 11.8438 16.1562 12 16.375 12H17.625C17.8125 12 18 11.8438 18 11.625V10.375C18 10.1875 17.8125 10 17.625 10ZM17.625 16H16.375C16.1562 16 16 16.1875 16 16.375V17.625C16 17.8438 16.1562 18 16.375 18H17.625C17.8125 18 18 17.8438 18 17.625V16.375C18 16.1875 17.8125 16 17.625 16ZM17.625 13H16.375C16.1562 13 16 13.1875 16 13.375V14.625C16 14.8438 16.1562 15 16.375 15H17.625C17.8125 15 18 14.8438 18 14.625V13.375C18 13.1875 17.8125 13 17.625 13Z" fill="#C8C8C8"/>
</svg>
