<svg width="27" height="26" viewBox="0 0 27 26" fill="none" xmlns="http://www.w3.org/2000/svg">
<path d="M21.1796 5.70927C20.9402 5.41668 20.2619 5.03098 19.1447 4.55219C18.0009 4.07339 16.2986 3.79409 14.0376 3.71429C13.9844 3.71429 13.4923 3.72759 12.5613 3.75419C11.6037 3.75419 10.5131 3.90049 9.28954 4.19309C8.03936 4.48569 6.94877 5.03098 6.01778 5.82897C4.66119 7.31855 3.9962 9.40663 4.0228 12.0932C3.9696 12.9976 4.0095 14.0616 4.1425 15.2852C4.2489 16.5088 4.63459 17.6525 5.29959 18.7165C5.99118 19.7805 7.12167 20.5519 8.69105 21.0307V23.1055C8.66445 23.1321 8.67775 23.2784 8.73095 23.5444C8.78415 23.8104 8.94375 23.9966 9.20974 24.103C9.47574 24.1828 9.71514 24.1429 9.92793 23.9833C10.1407 23.8237 10.3535 23.6109 10.5663 23.3449C10.6727 23.2385 10.7791 23.1188 10.8855 22.9858C11.2579 22.5602 11.6569 22.1213 12.0825 21.6691C13.7317 21.7755 15.1149 21.7356 16.2321 21.5494C17.3493 21.3898 17.9876 21.2701 18.1472 21.1903C18.2004 21.1903 18.2802 21.177 18.3866 21.1504C18.7856 21.0706 19.3176 20.8844 19.9826 20.5918C20.6476 20.2726 21.2993 19.7273 21.9377 18.9559C22.5495 18.1579 22.9618 17.0141 23.1746 15.5246C23.4672 12.971 23.4273 10.8829 23.0549 9.26033C22.6559 7.61115 22.0308 6.42746 21.1796 5.70927ZM21.7382 15.1655C21.552 16.3891 21.2195 17.32 20.7407 17.9584C20.2353 18.5968 19.7033 19.0357 19.1447 19.2751C18.6127 19.5145 18.1871 19.6608 17.8679 19.714C17.7615 19.714 17.6817 19.7273 17.6285 19.7539C17.4689 19.8071 16.9104 19.9135 15.9528 20.0731C14.9952 20.2327 13.8115 20.2726 12.4017 20.1928C12.3751 20.2194 12.1889 20.4455 11.8431 20.8711C11.4707 21.2967 11.0717 21.7622 10.6461 22.2676C10.2205 22.7464 9.90133 23.1055 9.68854 23.3449C9.42254 23.5843 9.27624 23.5178 9.24964 23.1454C9.24964 23.0124 9.24964 22.6666 9.24964 22.108C9.24964 21.576 9.24964 21.0573 9.24964 20.5519C9.24964 20.0199 9.24964 19.7406 9.24964 19.714C7.97286 19.315 7.05517 18.6899 6.49657 17.8387C5.96458 16.9609 5.64538 16.03 5.53898 15.0458C5.45918 14.035 5.43258 13.1439 5.45918 12.3725C5.45918 12.2927 5.45918 12.2129 5.45918 12.1331C5.43258 9.89873 6.00448 8.15645 7.17486 6.90626C7.94626 6.24127 8.86395 5.78907 9.92793 5.54967C10.9653 5.31028 11.883 5.17728 12.681 5.15068C13.5056 5.15068 13.9312 5.16398 13.9578 5.19058C15.873 5.21718 17.336 5.42998 18.3467 5.82897C19.3309 6.20137 19.9161 6.50726 20.1023 6.74666C20.8471 7.35845 21.3658 8.38254 21.6584 9.81893C21.951 11.2287 21.9776 13.0109 21.7382 15.1655ZM16.1922 11.9336C16.1656 12.1198 16.0858 12.2129 15.9528 12.2129C15.7932 12.2129 15.7001 12.1331 15.6735 11.9735C15.6469 11.0957 15.208 10.6435 14.3568 10.6169C14.1972 10.5903 14.1174 10.4972 14.1174 10.3376C14.144 10.178 14.2371 10.0982 14.3967 10.0982C15.5139 10.178 16.1124 10.7898 16.1922 11.9336ZM16.9902 12.4124C17.0168 11.5346 16.7774 10.8031 16.272 10.2179C15.74 9.65933 14.9686 9.32683 13.9578 9.22043C13.7982 9.19383 13.7184 9.10073 13.7184 8.94114C13.745 8.80814 13.8381 8.72834 13.9977 8.70174C15.1681 8.80814 16.0459 9.20713 16.6311 9.89873C17.2429 10.5903 17.5354 11.4282 17.5088 12.4124C17.4822 12.572 17.4025 12.6518 17.2695 12.6518C17.1099 12.6518 17.0168 12.5587 16.9902 12.3725V12.4124ZM18.8654 12.9311C18.8388 13.0907 18.759 13.1705 18.626 13.1705C18.4664 13.1705 18.3733 13.0907 18.3467 12.9311C18.3201 11.3085 17.8413 10.0583 16.9104 9.18053C16.006 8.32934 14.8755 7.90375 13.5189 7.90375C13.3593 7.87715 13.2795 7.78405 13.2795 7.62445C13.2795 7.46485 13.3593 7.38505 13.5189 7.38505C15.0351 7.38505 16.2986 7.87715 17.3094 8.86134C18.2935 9.81893 18.8122 11.1755 18.8654 12.9311ZM18.4265 16.8412C18.2137 17.2402 17.9211 17.586 17.5487 17.8786C17.1764 18.1978 16.7774 18.3042 16.3518 18.1978V18.1579C15.8996 18.0249 15.2745 17.7456 14.4765 17.32C13.6785 16.8944 12.947 16.429 12.282 15.9236C11.617 15.3916 11.0451 14.8197 10.5663 14.2079C10.1673 13.7025 9.75504 13.0907 9.32944 12.3725C8.58465 10.8563 8.23885 10.1115 8.29205 10.1381C8.18565 9.71253 8.27875 9.31353 8.57135 8.94114C8.89055 8.59534 9.24964 8.30274 9.64864 8.06335C10.021 7.87715 10.3402 7.93035 10.6062 8.22294C10.6328 8.24954 10.7259 8.35594 10.8855 8.54214C11.0451 8.75494 11.1914 8.94114 11.3244 9.10073C11.5372 9.44653 11.7367 9.76573 11.9229 10.0583C12.1091 10.5371 12.0559 10.8962 11.7633 11.1356L11.2845 11.4947C11.1781 11.6011 11.1116 11.7208 11.085 11.8538C11.085 11.9868 11.085 12.0533 11.085 12.0533C11.085 12.0799 11.1781 12.3193 11.3643 12.7715C11.5505 13.2237 11.8963 13.7158 12.4017 14.2478C12.8805 14.7798 13.5588 15.1788 14.4366 15.4448C14.4632 15.4448 14.5297 15.4315 14.6361 15.4049C14.7691 15.4049 14.8888 15.3384 14.9952 15.2054L15.3942 14.7266C15.607 14.434 15.9528 14.3941 16.4316 14.6069C17.0966 14.9527 17.7083 15.3783 18.2669 15.8837C18.5595 16.1497 18.6127 16.4689 18.4265 16.8412Z" fill="#ABABAB"/>
</svg>
