<svg width="27" height="26" viewBox="0 0 27 26" fill="none" xmlns="http://www.w3.org/2000/svg">
<path d="M22.461 7.40191L22.4643 7.36716V7.33226V7.33096V7.32966V7.32835V7.32705V7.32575V7.32445V7.32315V7.32185V7.32055V7.31925V7.31795V7.31665V7.31534V7.31404V7.31274V7.31144V7.31014V7.30884V7.30754V7.30624V7.30494V7.30364V7.30233V7.30103V7.29973V7.29843V7.29713V7.29583V7.29453V7.29323V7.29193V7.29062V7.28932V7.28802V7.28672V7.28542V7.28412V7.28282V7.28152V7.28022V7.27892V7.27761V7.27631V7.27501V7.27371V7.27241V7.27111V7.26981V7.26851V7.26721V7.26591V7.2646V7.2633V7.262V7.2607V7.2594V7.2581V7.2568V7.2555V7.2542V7.25289V7.25159V7.25029V7.24899V7.24769V7.24639V7.24509V7.24379V7.24249V7.24119V7.23988V7.23858V7.23728V7.23598V7.23468V7.23338V7.23208V7.23078V7.22948V7.22818V7.22687V7.22557V7.22427V7.22297V7.22167V7.22037V7.21907V7.21777V7.21647V7.21516V7.21386V7.21256V7.21126V7.20996V7.20866V7.20736V7.20606V7.20476V7.20346V7.20215V7.20085V7.19955V7.19825V7.19695V7.19565V7.19435V7.19305V7.19175V7.19045V7.18914V7.18784V7.18654V7.18524V7.18394V7.18264V7.18134V7.18004V7.17874V7.17743V7.17613V7.17483V7.17353V7.17223V7.17093V7.16963V7.16833V7.16703V7.16573V7.16442V7.16312V7.16182V7.16052V7.15922V7.15792V7.15662V7.15532V7.15402V7.15272V7.15141V7.15011V7.14881V7.14751V7.14621V7.14491V7.14361V7.14231V7.14101V7.1397V7.1384V7.1371V7.1358V7.1345V7.1332V7.1319V7.1306V7.1293V7.128V7.12669V7.12539V7.12409V7.12279V7.12149V7.12019V7.11889V7.11759V7.11629V7.11499V7.11368V7.11238V7.11108V7.10978V7.10848V7.10718V7.10588V7.10458V7.10328V7.10197V7.10067V7.09937V7.09807V7.09677V7.09547V7.09417V7.09287V7.09157V7.09027V7.08896V7.08766V7.08636V7.08506V7.08376V7.08246V7.08116V7.07986V7.07856V7.07726V7.07595V7.07465V7.07335V7.07205V7.07075V7.06945V7.06815V7.06685V7.06555V7.06425V7.06294V7.06164V7.06034V7.05904V7.05774V7.05644V7.05514V7.05384V7.05254V7.05123V7.04993V7.04863V7.04733V7.04603V7.04473V7.04343V7.04213V7.04083V7.03953V7.03822V7.03692V7.03562V7.03432V7.03302V7.03172V7.03042V7.02912V7.02782V7.02652V7.02521V7.02391V7.02261V7.02131V7.02001V7.01871V7.01741V7.01611V7.01481V7.0135V7.0122V7.0109V7.0096V7.0083V7.007V7.0057V7.0044V7.0031V7.0018V7.00049V6.99919V6.99789V6.99659V6.99529V6.99399V6.99269V6.99139V6.99009V6.98879V6.98748V6.98618V6.98488V6.98358V6.98228V6.98098V6.97968V6.97838V6.97708V6.97577V6.97447V6.97317V6.97187V6.97057V6.96927V6.96797V6.96667V6.96537V6.96407V6.96276V6.96146V6.96016V6.95886V6.95756V6.95626V6.95496V6.95366V6.95236V6.95106V6.94975V6.94845V6.94715V6.94585V6.94455V6.94325V6.94195V6.94065V6.93935V6.93804V6.93674V6.93544V6.93414V6.93284V6.93154V6.93024V6.92894V6.92764V6.92634V6.92503V6.92373V6.92243V6.92113V6.91983V6.91853V6.91723V6.91593V6.91463V6.91333V6.91202V6.91072V6.90942V6.90812V6.90682V6.90552V6.90422V6.90292V6.90162V6.90031V6.89901V6.89771V6.89641V6.89511V6.89381V6.89251V6.89121V6.88991V6.88861V6.8873V6.886V6.8847V6.8834V6.8821V6.8808V6.8795V6.8782V6.8769V6.8756V6.87429V6.87299V6.87169V6.87039V6.86909V6.86779V6.86649V6.86519V6.86389V6.86258V6.86128V6.85998V6.85868V6.85738V6.85608V6.85478V6.85348V6.85218V6.85088V6.84957V6.84827V6.84697V6.84567V6.84437V6.84307V6.84177V6.84047V6.83917V6.83787V6.83656V6.83526V6.83396V6.83266V6.83136V6.83006V6.82876V6.82746V6.82616V6.82485V6.82355V6.82225V6.82095V6.81965V6.81835V6.81705V6.81575V6.81445V6.81315V6.81184V6.81054V6.80924V6.80794V6.80664V6.80534V6.80404V6.80274V6.80144V6.80014V6.79883V6.79753V6.79623V6.79493V6.79363V6.79233V6.79103V6.78973V6.78843V6.78712V6.78582V6.78452V6.78322V6.78192V6.78062V6.77932V6.77802V6.77672V6.77542V6.77411V6.77281V6.77151V6.77021V6.76891V6.76761V6.76631V6.76501V6.76371V6.76241V6.7611V6.7598V6.7585V6.7572V6.7559V6.7546V6.7533V6.752V6.7507V6.7494V6.74809V6.74679V6.74549V6.74419V6.74289V6.74159V6.74029V6.73899V6.73769V6.73638V6.73508V6.73378V6.73248V6.73118V6.72988V6.72858V6.72728V6.72598V6.72468V6.72337V6.72207V6.72077V6.71947V6.71817V6.71687V6.71557V6.71427V6.71297V6.71167V6.71036V6.70906V6.70776V6.70646V6.70516V6.70386V6.70256V6.70126V6.69996V6.69865V6.69735V6.69605V6.69475V6.69345V6.69215V6.69085V6.68955V6.68825V6.68695V6.68564V6.68434V6.68304V6.68174V6.68044V6.67914V6.67784V6.67654V6.67524V6.67394V6.67263V6.67133V6.67003V6.66873V6.66743V6.66613V6.57984L22.4447 6.4958C22.3735 6.19063 22.228 5.91749 22.0142 5.68826L21.9503 5.61975L21.8715 5.56907C21.5666 5.37292 21.2207 5.25 20.8444 5.25C20.6128 5.25 20.3364 5.32447 20.0924 5.40075C19.8217 5.4854 19.4855 5.60783 19.089 5.76424C18.3083 6.04423 16.8777 6.6545 14.8211 7.58051C13.325 8.24884 10.3196 9.62652 5.80945 11.7114C5.4286 11.8799 5.09099 12.0678 4.83037 12.2851C4.5758 12.4974 4.31268 12.8073 4.25657 13.2284L4.25 13.2777V13.3274C4.25 13.8374 4.51547 14.2341 4.87022 14.5057C5.20331 14.7608 5.64114 14.9312 6.11934 15.0533L6.21062 15.0766H6.30483C6.33162 15.0766 6.36236 15.0803 6.39878 15.0909C6.8133 15.2837 7.26254 15.4262 7.74278 15.5223C8.20315 15.655 8.63068 15.7379 9.00591 15.7425C9.74357 15.7974 10.4699 15.4912 11.1525 15.0034L11.1525 15.0034L11.1596 14.9983C12.1503 14.2727 13.0278 13.6322 13.7922 13.0766C13.7142 13.1558 13.637 13.2338 13.5607 13.3106C13.359 13.484 13.1925 13.6336 13.0667 13.7562C13.0018 13.8194 12.9401 13.8829 12.8873 13.9438C12.8641 13.9706 12.8278 14.0134 12.7903 14.0679L12.7903 14.068L12.7895 14.0687L12.7888 14.0695L12.7881 14.0703L12.7873 14.0711L12.7866 14.0719L12.7859 14.0726L12.7852 14.0734L12.7844 14.0742L12.7837 14.075L12.783 14.0758L12.7822 14.0765L12.7815 14.0773L12.7808 14.0781L12.7801 14.0789L12.7793 14.0797L12.7786 14.0804L12.7779 14.0812L12.7771 14.082L12.7764 14.0828L12.7757 14.0836L12.775 14.0844L12.7742 14.0851L12.7735 14.0859L12.7728 14.0867L12.772 14.0875L12.7713 14.0883L12.7706 14.089L12.7699 14.0898L12.7691 14.0906L12.7684 14.0914L12.7677 14.0922L12.767 14.0929L12.7662 14.0937L12.7655 14.0945L12.7648 14.0953L12.764 14.0961L12.7633 14.0968L12.7626 14.0976L12.7619 14.0984L12.7611 14.0992L12.7604 14.1L12.7597 14.1007L12.7589 14.1015L12.7582 14.1023L12.7575 14.1031L12.7568 14.1039L12.756 14.1046L12.7553 14.1054L12.7546 14.1062L12.7538 14.107L12.7531 14.1078L12.7524 14.1085L12.7517 14.1093L12.7509 14.1101L12.7502 14.1109L12.7495 14.1117L12.7487 14.1125L12.748 14.1132L12.7473 14.114L12.7466 14.1148L12.7458 14.1156L12.7451 14.1164L12.7444 14.1171L12.7437 14.1179L12.7429 14.1187L12.7422 14.1195L12.7415 14.1203L12.7407 14.121L12.74 14.1218L12.7393 14.1226L12.7386 14.1234L12.7378 14.1242L12.7371 14.1249L12.7364 14.1257L12.7356 14.1265L12.7349 14.1273L12.7342 14.1281L12.7335 14.1288L12.7327 14.1296L12.732 14.1304L12.7313 14.1312L12.7305 14.132L12.7298 14.1327L12.7291 14.1335L12.7284 14.1343L12.7276 14.1351L12.7269 14.1359L12.7262 14.1367L12.7254 14.1374L12.7247 14.1382L12.724 14.139L12.7233 14.1398L12.7225 14.1406L12.7218 14.1413L12.7211 14.1421L12.7204 14.1429L12.7196 14.1437L12.7189 14.1445L12.7182 14.1452L12.7174 14.146L12.7167 14.1468L12.716 14.1476L12.7153 14.1484L12.7145 14.1491L12.7138 14.1499L12.7131 14.1507L12.7123 14.1515L12.7116 14.1523L12.7109 14.153L12.7102 14.1538L12.7094 14.1546L12.7087 14.1554L12.708 14.1562L12.7072 14.1569L12.7065 14.1577L12.7058 14.1585L12.7051 14.1593L12.7043 14.1601L12.7036 14.1609L12.7029 14.1616L12.7021 14.1624L12.7014 14.1632L12.7007 14.164L12.7 14.1648L12.6992 14.1655L12.6985 14.1663L12.6978 14.1671L12.6971 14.1679L12.6963 14.1687L12.6956 14.1694L12.6949 14.1702L12.6941 14.171L12.6934 14.1718L12.6927 14.1726L12.692 14.1733L12.6912 14.1741L12.6905 14.1749L12.6898 14.1757L12.689 14.1765L12.6883 14.1772L12.6876 14.178L12.6869 14.1788L12.6861 14.1796L12.6854 14.1804L12.6847 14.1811L12.6839 14.1819L12.6832 14.1827L12.6825 14.1835L12.6818 14.1843L12.681 14.1851L12.6803 14.1858L12.6796 14.1866L12.6788 14.1874L12.6781 14.1882L12.6774 14.189L12.6767 14.1897L12.6759 14.1905L12.6752 14.1913L12.6745 14.1921L12.6737 14.1929L12.673 14.1936L12.6723 14.1944L12.6716 14.1952L12.6708 14.196L12.6701 14.1968L12.6694 14.1975L12.6687 14.1983L12.6679 14.1991L12.6672 14.1999L12.6665 14.2007L12.6657 14.2014L12.665 14.2022L12.6643 14.203L12.6636 14.2038L12.6628 14.2046L12.6621 14.2053L12.6614 14.2061L12.6606 14.2069L12.6599 14.2077L12.6592 14.2085L12.6585 14.2092L12.6577 14.21L12.657 14.2108L12.6563 14.2116L12.6555 14.2124L12.6548 14.2132L12.6541 14.2139L12.6534 14.2147L12.6526 14.2155L12.6519 14.2163L12.6512 14.2171L12.6504 14.2178L12.6497 14.2186L12.649 14.2194L12.6483 14.2202L12.6475 14.221L12.6468 14.2217L12.6461 14.2225L12.6454 14.2233L12.6446 14.2241L12.6439 14.2249L12.6432 14.2256L12.6424 14.2264L12.6417 14.2272L12.641 14.228L12.6403 14.2288L12.6395 14.2295L12.6388 14.2303L12.6381 14.2311L12.6373 14.2319L12.6366 14.2327L12.6359 14.2334L12.6352 14.2342L12.6344 14.235L12.6337 14.2358L12.633 14.2366L12.6322 14.2374L12.6315 14.2381L12.6308 14.2389L12.6301 14.2397L12.6293 14.2405L12.6286 14.2413L12.6279 14.242L12.6271 14.2428L12.6264 14.2436L12.6257 14.2444L12.625 14.2452L12.6242 14.2459L12.6235 14.2467L12.6228 14.2475L12.6221 14.2483L12.6213 14.2491L12.6206 14.2498L12.6199 14.2506L12.6191 14.2514L12.6184 14.2522L12.6177 14.253L12.617 14.2537L12.6162 14.2545L12.6155 14.2553L12.6148 14.2561L12.614 14.2569L12.6133 14.2576L12.6126 14.2584L12.6119 14.2592L12.6111 14.26L12.6104 14.2608L12.6097 14.2616L12.6089 14.2623L12.6082 14.2631L12.6075 14.2639L12.6068 14.2647L12.606 14.2655L12.6053 14.2662L12.6046 14.267L12.6038 14.2678L12.6031 14.2686L12.6024 14.2694L12.6017 14.2701L12.6009 14.2709L12.6002 14.2717L12.5995 14.2725L12.5988 14.2733L12.598 14.274L12.5973 14.2748L12.5966 14.2756L12.5958 14.2764L12.5951 14.2772L12.5944 14.2779L12.5937 14.2787L12.5929 14.2795L12.5922 14.2803L12.5915 14.2811L12.5907 14.2818L12.59 14.2826L12.5893 14.2834L12.5886 14.2842L12.5878 14.285L12.5871 14.2858L12.5864 14.2865L12.5856 14.2873L12.5849 14.2881L12.5842 14.2889L12.5835 14.2897L12.5827 14.2904L12.582 14.2912L12.5813 14.292L12.5805 14.2928L12.5798 14.2936L12.5791 14.2943L12.5784 14.2951L12.5776 14.2959L12.5769 14.2967L12.5762 14.2975L12.5754 14.2982L12.5747 14.299L12.574 14.2998L12.5733 14.3006L12.5725 14.3014L12.5718 14.3021L12.5711 14.3029L12.5704 14.3037L12.5696 14.3045L12.5689 14.3053L12.5682 14.306L12.5674 14.3068L12.5667 14.3076L12.566 14.3084L12.5653 14.3092L12.5645 14.3099L12.5638 14.3107L12.5631 14.3115L12.5623 14.3123L12.5616 14.3131L12.5609 14.3139L12.5602 14.3146L12.5594 14.3154L12.5587 14.3162L12.558 14.317L12.5572 14.3178L12.5565 14.3185L12.5558 14.3193L12.5551 14.3201L12.5543 14.3209L12.5536 14.3217L12.5529 14.3224L12.5521 14.3232L12.5514 14.324L12.5507 14.3248L12.55 14.3256L12.5492 14.3263L12.5485 14.3271L12.5478 14.3279L12.5471 14.3287L12.5463 14.3295L12.5456 14.3302L12.5449 14.331L12.5441 14.3318L12.5434 14.3326L12.5427 14.3334L12.542 14.3341L12.5412 14.3349L12.5405 14.3357L12.5398 14.3365L12.539 14.3373L12.5383 14.3381L12.5376 14.3388L12.5369 14.3396L12.5361 14.3404L12.5354 14.3412L12.5347 14.342L12.5339 14.3427L12.5332 14.3435L12.5325 14.3443L12.5318 14.3451L12.531 14.3459L12.5303 14.3466L12.5296 14.3474L12.5288 14.3482L12.5281 14.349L12.5274 14.3498L12.5267 14.3505L12.5259 14.3513L12.5252 14.3521L12.5245 14.3529L12.5238 14.3537L12.523 14.3544L12.5223 14.3552L12.5216 14.356L12.5208 14.3568L12.5201 14.3576L12.5194 14.3583L12.5187 14.3591L12.5179 14.3599L12.5172 14.3607L12.5165 14.3615L12.5157 14.3623L12.515 14.363L12.5143 14.3638L12.5136 14.3646L12.5128 14.3654L12.5121 14.3662L12.5114 14.3669L12.5106 14.3677L12.5099 14.3685L12.5092 14.3693L12.5085 14.3701L12.5077 14.3708L12.507 14.3716L12.5063 14.3724L12.5055 14.3732L12.5048 14.374L12.5041 14.3747L12.5034 14.3755L12.5026 14.3763L12.5019 14.3771L12.5012 14.3779L12.5005 14.3786L12.4997 14.3794L12.499 14.3802L12.4983 14.381L12.4975 14.3818L12.4968 14.3825L12.4961 14.3833L12.4954 14.3841L12.4946 14.3849L12.4942 14.3853C12.0451 14.7776 11.6907 15.2365 11.5514 15.7729C11.4025 16.2089 11.5389 16.6198 11.7261 16.9209C11.9173 17.2284 12.2126 17.5139 12.5519 17.7806L12.5798 17.8025L12.6097 17.8217C13.2156 18.2115 13.7588 18.578 14.2399 18.9214C14.7458 19.3273 15.3485 19.7726 16.0456 20.2567L16.2735 20.44L16.5132 20.6326C17.2263 21.2414 18.0215 21.5961 18.8866 21.6045C19.4903 21.6449 19.9103 21.2629 20.1574 20.8734C20.4045 20.4837 20.5772 19.9534 20.7077 19.3472L20.7118 19.3284L20.7148 19.3094C20.8804 18.2888 21.0874 17.0238 21.3359 15.5142C21.5853 13.9989 21.814 12.5056 22.022 11.0343L22.0224 11.0313C22.2301 9.51701 22.3767 8.30577 22.461 7.40191Z" stroke="#ABABAB" stroke-width="1.5"/>
</svg>
