<svg width="27" height="26" viewBox="0 0 27 26" fill="none" xmlns="http://www.w3.org/2000/svg">
<path d="M20.794 6.69452C18.97 4.92581 16.8006 4.02764 14.2857 4C12.5723 4.02764 11.0247 4.44218 9.64286 5.24362C8.26105 6.0727 7.15561 7.17815 6.32653 8.55995C5.52509 9.94175 5.11054 11.4894 5.08291 13.2028C5.08291 14.861 5.48363 16.3948 6.28508 17.8042L5 22.5714L9.89158 21.2864C11.2457 22.0325 12.7105 22.4056 14.2857 22.4056C15.9991 22.378 17.5468 21.9634 18.9286 21.162C20.338 20.3329 21.4573 19.2275 22.2864 17.8457C23.1154 16.4639 23.5438 14.9162 23.5714 13.2028C23.5714 11.9592 23.3227 10.7847 22.8253 9.67921C22.3554 8.57377 21.6784 7.57887 20.794 6.69452ZM14.2857 20.8718C12.8763 20.8442 11.5774 20.4849 10.389 19.794L10.0989 19.6282L7.19707 20.3744L7.98469 17.5555L7.81888 17.2653C7.04507 16.0217 6.64435 14.6675 6.61671 13.2028C6.67198 11.0472 7.43197 9.25085 8.89668 7.81378C10.3338 6.34906 12.1301 5.60289 14.2857 5.57526C16.3861 5.57526 18.1824 6.32143 19.6747 7.81378C21.1947 9.30612 21.9824 11.1025 22.0376 13.2028C21.9547 15.3584 21.1809 17.1686 19.7162 18.6333C18.2515 20.0704 16.4413 20.8165 14.2857 20.8718ZM18.4726 15.1511C18.3344 15.0682 18.0719 14.9301 17.6849 14.7366C17.298 14.5708 17.0355 14.4602 16.8973 14.405C16.7039 14.2668 16.5381 14.2944 16.3999 14.4879C16.2893 14.6261 16.165 14.7919 16.0268 14.9853C15.861 15.1788 15.7366 15.317 15.6537 15.3999C15.5432 15.5657 15.3773 15.5795 15.1562 15.4413C14.493 15.1373 13.9126 14.7919 13.4152 14.405C12.9177 14.0181 12.4617 13.4515 12.0472 12.7054C11.9366 12.5395 11.9781 12.3737 12.1716 12.2079C12.3097 12.0974 12.4894 11.8486 12.7105 11.4617C12.7657 11.3236 12.7519 11.1854 12.669 11.0472C12.6414 11.0196 12.5861 10.8814 12.5032 10.6327C12.4203 10.4116 12.3236 10.1628 12.213 9.88648C12.1025 9.66539 12.0196 9.48576 11.9643 9.34758C11.7985 9.01594 11.6465 8.89158 11.5083 8.97449C11.4807 8.97449 11.4668 8.97449 11.4668 8.97449C11.3287 8.97449 11.1767 8.97449 11.0108 8.97449C10.845 8.94685 10.6378 9.02976 10.389 9.22321C10.389 9.25085 10.3752 9.27849 10.3476 9.30612C10.2094 9.41667 10.0574 9.62394 9.89158 9.92793C9.72577 10.2319 9.62904 10.6465 9.6014 11.1716C9.62904 11.7243 9.76722 12.2355 10.0159 12.7054C10.2647 13.1475 10.4305 13.4239 10.5134 13.5344C10.5134 13.5344 10.5272 13.5344 10.5548 13.5344C10.5548 13.5621 10.5687 13.5897 10.5963 13.6173C10.7345 13.8661 11.149 14.3635 11.8399 15.1097C12.5032 15.8559 13.3737 16.4915 14.4515 17.0166C15.1701 17.3206 15.7228 17.514 16.1097 17.5969C16.5242 17.6522 16.8973 17.6522 17.229 17.5969C17.4777 17.5417 17.7679 17.4173 18.0995 17.2239C18.4311 17.0304 18.6522 16.7955 18.7628 16.5191C18.9562 15.9111 19.0115 15.5381 18.9286 15.3999C18.8733 15.317 18.7628 15.2479 18.5969 15.1926C18.5417 15.165 18.5002 15.1511 18.4726 15.1511Z" fill="#ABABAB"/>
</svg>
