<svg width="26" height="26" viewBox="0 0 26 26" fill="none" xmlns="http://www.w3.org/2000/svg">
<path d="M20.9799 5.01283L17.5703 4.25111C16.7723 4.06975 15.9743 4.46874 15.6842 5.19419L14.0882 8.89397C13.798 9.54687 13.9794 10.3449 14.5597 10.8164L16.0106 12.0134C14.995 13.8995 13.399 15.4593 11.5128 16.5112L10.3159 15.0603C9.84431 14.4799 9.04632 14.2985 8.39342 14.5887L4.69364 16.1484C3.96819 16.4749 3.5692 17.2729 3.75056 18.0709L4.51228 21.4805C4.69364 22.2422 5.38281 22.75 6.14453 22.75C15.0313 22.75 22.2857 15.5681 22.2857 6.64508C22.2857 5.88336 21.7416 5.19419 20.9799 5.01283ZM6.21708 21.0089L5.45536 17.7444L9.01005 16.221L11.0413 18.6875C14.6323 16.9827 16.4821 15.1328 18.1869 11.5418L15.7204 9.5106L17.2439 5.95591L20.5446 6.71763C20.5084 14.5887 14.0882 20.9726 6.21708 21.0089Z" fill="#ABABAB"/>
</svg>
