<svg width="138" height="84" viewBox="0 0 138 84" fill="none" xmlns="http://www.w3.org/2000/svg">
<path d="M23.1309 18.1102C23.664 15.4718 24.254 12.8443 24.818 10.2126C25.2901 8.46037 25.0954 5.92743 27.4778 5.9132C34.6242 5.20194 41.7823 4.55343 48.9705 4.77602C50.2097 4.935 51.9295 4.38189 52.8086 5.4923C53.2807 6.41276 52.9331 7.53405 52.9113 8.52731C52.8339 9.46953 52.7534 10.4118 52.6698 11.354C52.496 13.3254 52.3164 15.2961 52.1518 17.2675C52.0197 18.6641 52.2353 20.4423 50.3652 20.2933C46.09 20.2766 41.8149 20.2866 37.5406 20.2866V20.3025C33.3541 20.3025 29.1681 20.3025 24.9826 20.3025C23.1075 20.3753 22.8183 19.4925 23.1309 18.1102ZM45.4366 28.3783C39.6155 28.3783 33.7939 28.3783 27.9717 28.3783C26.9965 28.3214 26.999 28.985 27.1712 29.6452C27.4368 30.6295 27.7771 31.5921 28.189 32.5246C28.4313 33.0618 28.9862 33.3405 29.7558 33.2894H43.7385C44.4071 33.2618 44.9469 33.0384 45.2811 32.0928C45.5653 31.2828 46.1845 29.5825 46.2154 29.5072C46.4385 28.9273 46.2513 28.3156 45.4366 28.3783ZM114.61 39.7996C114.61 40.3736 114.595 40.6104 114.61 41.1845C114.635 42.2999 115.1 43.0664 113.493 43.3777C113.347 43.4059 113.214 43.4791 113.111 43.5871C113.008 43.6951 112.942 43.8325 112.921 43.9802C112.67 45.7985 112.299 47.8612 110.229 47.9616H104.769C102.847 47.862 101.191 47.2779 100.628 45.0119C100.392 44.3048 100.073 44.1467 99.4038 44.1517C95.6194 44.1768 91.8343 44.1768 88.0483 44.1517C86.0427 44.0103 87.577 47.6595 83.6286 47.9616C79.3919 47.8704 74.1951 48.805 73.7873 44.1651C72.7644 44.1651 71.7592 44.1483 70.7614 44.1567C70.2433 44.1609 69.5514 44.1224 68.9138 44.34C67.3871 44.8621 67.571 47.4051 64.7173 47.8687C64.1666 47.9442 63.6101 47.9675 63.0552 47.9381C61.5076 47.8879 58.8912 48.1189 56.9274 47.913C55.2829 47.7398 53.8991 47.0896 53.2874 45.1073C53.0409 44.4471 52.7718 44.1333 51.993 44.1417C47.8527 44.1868 43.7112 44.1868 39.5687 44.1417C37.4219 44.1358 38.6228 47.78 33.9482 47.9574C30.5655 47.79 25.3102 48.8779 25.1915 44.1919H32.444C30.0909 43.7241 27.7461 43.2103 25.3921 42.7484C25.0804 42.6873 23.3724 42.4572 22.8852 42.0648C22.0955 41.4322 22.0704 40.4891 22.0963 39.2707C22.098 39.0777 22.1703 38.892 22.2995 38.7488C22.4287 38.6055 22.6058 38.5147 22.7974 38.4934C23.6757 38.4097 24.7754 39.0381 24.8456 37.6783C24.9292 36.0098 24.5113 35.5496 22.7832 35.3253C22.5589 35.2952 22.354 35.1818 22.2092 35.0076C22.0643 34.8334 21.9901 34.6112 22.0011 34.3848C22.0663 32.999 22.1314 31.605 22.1991 30.1741C22.2417 29.2662 23.2579 28.7264 24.015 29.2285C25.5701 30.2603 25.5099 32.492 26.5486 34.3329C26.7676 34.773 27.4026 35.286 27.8531 35.2902C34.176 35.3521 40.4991 35.3538 46.822 35.2952C47.2683 35.2952 47.8892 34.8567 48.119 34.4475C48.7683 33.2936 49.2487 32.0443 49.8086 30.8393C51.1005 28.062 53.4604 26.9064 56.4402 27.4085C59.8664 27.9884 63.3017 28.4746 66.8089 28.9984C66.9511 29.0199 67.0962 29.0107 67.2346 28.9715C67.373 28.9322 67.5014 28.8639 67.6113 28.7709C67.7212 28.678 67.81 28.5627 67.8717 28.4326C67.9335 28.3026 67.9669 28.1608 67.9696 28.0168C68.0807 21.3427 67.9696 14.6819 68.0063 8.006C68.0063 5.91404 68.0063 5.86049 65.9415 5.31658C62.0616 4.2957 58.2118 2.98196 54.2617 2.45729C49.6231 1.72762 43.1536 2.19705 37.3985 1.99622C46.9466 0.908405 59.3683 0.471602 68.994 0.0172287C71.2118 -0.0840221 73.3026 0.25404 75.3215 1.21634C90.0831 8.28716 99.8216 12.8602 114.546 20.0055C100.099 14.2191 90.7532 10.7799 76.2867 4.98521C75.4886 4.66556 74.8001 5.10822 74.7516 5.9676C74.6237 8.23277 74.9672 8.5315 77.6446 9.46619C89.9226 14.5287 101.401 18.4122 114.612 23.6505C101.685 19.3503 88.9123 15.5504 75.8805 11.2151C75.7471 11.17 75.6049 11.1574 75.4657 11.1784C75.3265 11.1993 75.1942 11.2531 75.0799 11.3354C74.9656 11.4176 74.8724 11.526 74.8082 11.6515C74.744 11.7769 74.7106 11.9159 74.7107 12.0569V13.2543C74.7115 13.5883 74.8174 13.9136 75.0133 14.184C75.2092 14.4544 75.4851 14.6561 75.802 14.7605C88.9934 19.1168 101.329 23.0162 114.607 27.401L75.8187 17.2173C75.6881 17.1814 75.551 17.1761 75.4181 17.2019C75.2852 17.2277 75.16 17.2839 75.0522 17.3661C74.9445 17.4483 74.8572 17.5543 74.7971 17.6758C74.737 17.7973 74.7057 17.931 74.7056 18.0666V19.1771C74.7045 19.5781 74.8363 19.9683 75.0804 20.2863C75.3244 20.6043 75.667 20.8322 76.0544 20.9343L114.759 31.1447L76.1103 23.1886C75.3708 23.0321 74.7558 23.5233 74.7441 24.2764C74.7165 26.0337 74.8761 26.4136 77.2919 26.852C89.7028 29.7733 102.334 31.4226 114.609 34.7873C101.691 32.6853 88.8204 30.9439 75.8037 28.8269C75.6701 28.8046 75.5333 28.8118 75.4028 28.8478C75.2723 28.8838 75.1512 28.9478 75.0478 29.0354C74.9445 29.123 74.8614 29.232 74.8043 29.3549C74.7472 29.4779 74.7176 29.6117 74.7173 29.7473V30.9121C74.7172 31.2245 74.8298 31.5265 75.0346 31.7623C75.2393 31.998 75.5222 32.1517 75.8312 32.1949C87.3798 33.8191 98.9584 35.3897 110.51 37.0608C111.938 37.2667 115.5 37.7495 115.691 37.849C116.244 38.1285 115.999 38.726 115.394 39.3243C115.293 39.4306 114.785 39.685 114.61 39.7996ZM65.0782 33.3723C62.1535 33.1639 62.1535 46.134 65.0782 45.924C68.0063 46.1349 68.0063 33.1647 65.0782 33.3723ZM85.8021 43.9258H82.7696C83.4314 46.7926 85.1327 46.7926 85.7979 43.9258H85.8021ZM110.509 38.8549C108.732 38.7285 108.732 46.6026 110.509 46.4771C112.288 46.5993 112.288 38.7243 110.509 38.8549ZM58.7057 20.3092C60.3477 19.5929 59.7611 16.501 60.9769 16.1797C61.4883 16.045 62.1151 16.1412 62.8638 16.4483C64.0253 16.6809 65.6532 17.5085 65.7376 15.5655C65.8403 13.179 65.9047 11.9523 65.8211 10.1649C65.7994 8.34992 64.2635 8.17587 62.8797 7.72317C61.5368 7.29055 60.1856 6.8822 58.8318 6.48306C57.8291 6.32323 55.7776 4.99359 55.6564 6.76924C55.3389 10.7147 55.0589 14.6559 54.7289 18.6005C54.5943 19.5369 55.0915 20.2415 56.0091 20.3636C56.823 20.4741 57.9628 20.6289 58.7057 20.305V20.3092Z" fill="#EC6500"/>
<g clip-path="url(#clip0_7_107)">
<path d="M1.93579 80.4975H4.17289V81.1305H2.62001V83.9525H1.93579V81.1305H0.382904V80.499L1.93579 80.4975ZM10.5969 81.4791C10.5969 82.0638 10.1559 82.4607 9.56061 82.4607H7.89821V83.951H7.214V80.4975H9.56061C10.1559 80.4975 10.5969 80.8973 10.5969 81.4791ZM9.90749 81.4791C9.91167 81.4325 9.90561 81.3856 9.88973 81.3416C9.87385 81.2976 9.84853 81.2575 9.81553 81.2242C9.78253 81.1909 9.74263 81.1651 9.69861 81.1487C9.65459 81.1323 9.6075 81.1255 9.56061 81.129H7.89821V81.8292H9.56061C9.6075 81.8327 9.65459 81.826 9.69861 81.8095C9.74263 81.7931 9.78253 81.7673 9.81553 81.734C9.84853 81.7007 9.87385 81.6607 9.88973 81.6166C9.90561 81.5726 9.91167 81.5257 9.90749 81.4791ZM15.7465 80.4975L17.4368 83.951H16.6894L16.1485 82.8547H14.536L14.0003 83.951H13.2654L14.9557 80.4975H15.7465ZM15.856 82.2444L15.3415 81.1977L14.8359 82.2444H15.856ZM23.3713 81.6421H21.2084V80.4975H20.5242V83.951H21.2084V82.2736H23.3713V83.951H24.0562V80.4975H23.3713V81.6421ZM29.3344 83.3736C28.5356 83.3736 27.9704 82.9738 27.9704 82.2239C27.9704 81.474 28.5356 81.0749 29.3344 81.0749C29.865 81.0749 30.2898 81.2525 30.5199 81.5924L31.0909 81.1933C30.7433 80.7095 30.123 80.4478 29.3344 80.4478C28.099 80.4478 27.2708 81.0947 27.2708 82.2239C27.2708 83.3532 28.099 84 29.3344 84C30.1281 84 30.7536 83.7237 31.0982 83.2311L30.5331 82.8364C30.3119 83.1865 29.8753 83.3736 29.3344 83.3736ZM34.2658 83.951H34.95V81.1305H37.0136V83.9525H37.6986V80.499H34.2658V83.951ZM45.0412 82.2268C45.0412 83.3568 44.2129 84.0029 42.9775 84.0029C41.7421 84.0029 40.9139 83.3568 40.9139 82.2268C40.9139 81.0969 41.7421 80.4507 42.9775 80.4507C44.2129 80.4507 45.0412 81.0947 45.0412 82.2268ZM44.3415 82.2268C44.3415 81.4769 43.7764 81.0779 42.9775 81.0779C42.1787 81.0779 41.6135 81.4769 41.6135 82.2268C41.6135 82.9767 42.1787 83.3765 42.9775 83.3765C43.7764 83.3765 44.3408 82.9738 44.3408 82.2268H44.3415ZM51.6393 81.482C51.6393 82.0668 51.1984 82.4636 50.6023 82.4636H48.9407V83.954H48.2557V80.5004H50.6023C51.1969 80.4975 51.6386 80.8973 51.6386 81.4791L51.6393 81.482ZM50.95 81.482C50.954 81.4354 50.9479 81.3885 50.9319 81.3445C50.9159 81.3005 50.8905 81.2604 50.8575 81.2271C50.8244 81.1938 50.7845 81.1681 50.7404 81.1516C50.6964 81.1352 50.6493 81.1285 50.6023 81.1319H48.9407V81.8321H50.6023C50.6495 81.8355 50.6968 81.8287 50.741 81.812C50.7852 81.7954 50.8252 81.7693 50.8582 81.7357C50.8912 81.7021 50.9165 81.6617 50.9322 81.6174C50.9479 81.5731 50.9537 81.5259 50.9492 81.4791L50.95 81.482ZM54.2571 80.5004V81.1305H55.81V83.9525H56.4942V81.1305H58.0493V80.499H54.2593L54.2571 80.5004ZM63.936 81.645H61.7732V80.5004H61.0882V83.954H61.7732V82.2765H63.936V83.954H64.6202V80.5004H63.936V81.645ZM70.1917 80.5004L71.882 83.954H71.1375L70.5974 82.8576H68.9849L68.4492 83.954H67.7143L69.4046 80.5004H70.1917ZM70.3005 82.2473L69.786 81.2006L69.2716 82.2473H70.3005ZM76.0204 80.5004H78.2597V83.954H77.5747V82.4739H76.2452C76.0174 82.5082 75.8631 82.6815 75.8484 82.9672V83.0118C75.8035 83.6872 75.5654 84.0029 75.0348 84.0029C74.9214 84.0012 74.8084 83.9883 74.6975 83.9642L74.5931 83.3371C74.691 83.3582 74.7907 83.3697 74.8908 83.3714C75.0745 83.3714 75.134 83.2684 75.1686 82.9724L75.1737 82.9227C75.1947 82.6833 75.292 82.4569 75.4515 82.2765C75.2912 82.2061 75.1559 82.0895 75.063 81.9417C74.9701 81.7939 74.9239 81.6218 74.9305 81.4477C74.9297 80.8578 75.3935 80.4975 76.0211 80.4975L76.0204 80.5004ZM77.5732 81.1319H76.0204C75.7925 81.1319 75.6191 81.2503 75.6191 81.4872C75.6191 81.724 75.7727 81.8321 75.9865 81.8424H77.574L77.5732 81.1319ZM87.7548 82.9819L87.7497 82.8737C87.7476 82.6935 87.698 82.5171 87.6058 82.362C87.5136 82.2069 87.382 82.0786 87.2242 81.99C87.3881 81.8321 87.4624 81.6056 87.502 81.3044C87.5219 81.1517 87.6211 81.0925 87.76 81.0925C87.8589 81.0944 87.9573 81.1059 88.054 81.1268L87.9496 80.5004C87.8388 80.4761 87.7258 80.4629 87.6123 80.461C87.161 80.461 86.8384 80.6875 86.8186 81.1663C86.8039 81.4923 86.809 81.7291 86.4761 81.7386H84.9732V80.5004H84.289V83.954H84.9732V82.3701H86.5856C86.8634 82.3701 87.0567 82.5477 87.067 82.8686L87.0714 83.0148C87.0964 83.6901 87.3543 84.0059 87.8849 84.0059C87.9984 84.0042 88.1114 83.9912 88.2223 83.9671L88.3266 83.34C88.23 83.361 88.1315 83.3725 88.0327 83.3744C87.8497 83.3685 87.7703 83.2655 87.7556 82.9789L87.7548 82.9819ZM95.301 82.2268C95.301 83.3568 94.4728 84.0029 93.2374 84.0029C92.002 84.0029 91.1737 83.3568 91.1737 82.2268C91.1737 81.0969 92.002 80.4507 93.2374 80.4507C94.4728 80.4507 95.301 81.0947 95.301 82.2268ZM94.6014 82.2268C94.6014 81.4769 94.0362 81.0779 93.2374 81.0779C92.4385 81.0779 91.8734 81.4769 91.8734 82.2268C91.8734 82.9767 92.4385 83.3765 93.2374 83.3765C94.0362 83.3765 94.6014 82.9738 94.6014 82.2268ZM100.783 83.0761L99.2895 80.5004H98.5156V83.954H99.2005V81.6348L100.545 83.954H101.026L102.37 81.6348V83.954H103.055V80.5004H102.281L100.783 83.0761ZM106.617 83.9532H107.302V81.1305H109.365V83.9525H110.05V80.499H106.617V83.9532ZM115.621 80.4997L117.311 83.9532H116.564L116.023 82.8569H114.41L113.875 83.9532H113.14L114.83 80.4997H115.621ZM115.73 82.2466L115.216 81.1999L114.702 82.2466H115.73ZM123.246 81.6443H121.083V80.4997H120.399V83.9532H121.083V82.2758H123.246V83.9532H123.931V80.4997H123.246V81.6443ZM130.464 80.7219L128.177 82.9365V80.4997H127.492V83.9532H128.177V83.734L130.464 81.5186V83.9562H131.148V80.5026H130.464V80.7219ZM137.999 80.5026V83.9562H137.315V82.4761H135.986C135.757 82.5104 135.603 82.6837 135.589 82.9694V83.014C135.544 83.6894 135.306 84.0051 134.775 84.0051C134.662 84.0034 134.549 83.9905 134.438 83.9664L134.333 83.3393C134.431 83.3604 134.531 83.3719 134.631 83.3736C134.815 83.3736 134.874 83.2706 134.909 82.9746L134.914 82.9249C134.935 82.6854 135.032 82.4589 135.192 82.2787C135.032 82.2083 134.896 82.0917 134.803 81.9439C134.71 81.7961 134.664 81.624 134.671 81.4499C134.671 80.8652 135.132 80.4997 135.762 80.4997L137.999 80.5026ZM137.315 81.1341H135.762C135.534 81.1341 135.36 81.2525 135.36 81.4894C135.36 81.7262 135.514 81.8343 135.728 81.8446H137.315V81.1341Z" fill="white"/>
<path d="M72.2656 63.2825H83.8539V65.3247H79.3069V72.9261H76.8133V65.3247H72.2656V63.2825ZM97.0377 68.1145C97.0377 71.2874 94.9108 73.111 91.7756 73.111C90.272 73.111 89.0072 72.7097 88.1083 71.9415V76.9563H85.6148V63.2825H88.1076V64.2853C89.0064 63.5193 90.2712 63.0998 91.7565 63.0998C94.9108 63.0998 97.0377 64.9234 97.0377 68.1145ZM94.5257 68.1145C94.5257 66.3092 93.2028 65.3795 91.317 65.3795C89.4312 65.3795 88.1267 66.3092 88.1267 68.1145C88.1267 69.9199 89.4283 70.8503 91.317 70.8503C93.2058 70.8503 94.5257 69.9199 94.5257 68.1145ZM121.829 66.4334H115.393V63.2789H112.899V72.9268H115.393V68.4771H121.829V72.9268H124.322V63.2789H121.829V66.4334ZM110.515 70.7736C110.753 70.7736 111.341 70.737 111.597 70.6639L111.212 72.9253C110.992 72.9984 110.295 73.0715 109.983 73.0715C108.66 73.0715 107.783 72.5431 107.343 71.4489L107.27 71.2845C106.262 72.47 104.611 73.1117 102.759 73.1117C100.523 73.1117 98.8169 71.9269 98.8169 70.1033C98.8169 67.2038 102.943 66.7477 106.901 66.7843C106.589 65.7267 105.578 65.3802 104.004 65.3802C102.666 65.3802 101.419 65.8363 100.722 66.6958L99.0719 64.8686C100.321 63.6991 102.482 63.0998 104.242 63.0998C107.653 63.0998 109.523 64.7597 109.523 67.8229V69.3731C109.525 70.4125 109.837 70.7772 110.515 70.7772V70.7736ZM107.013 68.567C103.933 68.64 101.457 68.7862 101.457 69.9557C101.457 70.5404 102.081 70.8678 103.016 70.9058C104.854 70.9058 106.793 70.0668 107.013 68.6444V68.567ZM135.765 69.5171C135.196 70.3745 134.023 70.8488 132.648 70.8488C130.668 70.8488 129.238 69.9184 129.238 68.1131C129.238 66.3077 130.649 65.378 132.612 65.378C133.95 65.378 135.105 65.8166 135.655 66.6542L137.708 65.2143C136.718 63.846 134.866 63.0947 132.612 63.0947C129.127 63.0947 126.726 64.9219 126.726 68.1094C126.726 71.2823 129.055 73.1059 132.648 73.1059C134.921 73.1059 136.755 72.3019 137.763 70.9L135.765 69.5171Z" fill="#EC6500"/>
<path d="M0 66.565C0 62.3886 3.06168 60 7.62702 60C10.5425 60 12.8347 60.9663 14.1179 62.7533L12.0094 64.2305C11.1664 62.9726 9.58926 62.3155 7.62702 62.3155C4.67557 62.3155 2.58472 63.7927 2.58472 66.565C2.58472 69.3373 4.67557 70.8138 7.62702 70.8138C9.62601 70.8138 11.2392 70.1209 12.0645 68.8257L14.1546 70.2875C12.8714 72.1148 10.5608 73.1322 7.62702 73.1322C3.06168 73.1293 0 70.7407 0 66.565ZM27.2656 68.1328C27.2656 71.3057 24.919 73.1293 21.4164 73.1293C17.9137 73.1293 15.5679 71.302 15.5679 68.1328C15.5679 64.9417 17.9145 63.1181 21.398 63.1181C24.919 63.1181 27.2656 64.9417 27.2656 68.1328ZM24.7536 68.1328C24.7536 66.3275 23.3786 65.3978 21.398 65.3978C19.4365 65.3978 18.0798 66.3275 18.0798 68.1328C18.0798 69.9381 19.4365 70.8686 21.4164 70.8686C23.3786 70.8686 24.7573 69.9381 24.7573 68.1328H24.7536ZM40.5964 72.9444H43.09V63.2964H40.2848L36.3794 70.1348L32.4924 63.2964H29.6864V72.9444H32.18V67.0752L35.4255 72.9473H37.3326L40.5964 67.0569V72.9444ZM51.3615 70.6493L47.5112 63.3008H44.7612L50.06 73.3873C49.9886 73.5195 49.9091 73.6472 49.8218 73.7696C49.3449 74.4815 48.8495 74.7 48.025 74.7C47.8229 74.7 47.3466 74.6634 47.0696 74.5721L47.5649 77.0155C47.8457 77.0938 48.1354 77.1367 48.427 77.1434C49.8387 77.1434 51.1035 76.4856 52.1486 74.3535L57.5025 63.303H54.8259L51.3615 70.6493ZM67.8826 66.4554H61.4468V63.3008H58.9533V72.9487H61.4468V68.499H67.8826V72.9444H70.3761V63.2964H67.8826V66.4554Z" fill="white"/>
</g>
<defs>
<clipPath id="clip0_7_107">
<rect width="138" height="24" fill="white" transform="translate(0 60)"/>
</clipPath>
</defs>
</svg>
