<svg width="55" height="55" viewBox="0 0 55 55" fill="none" xmlns="http://www.w3.org/2000/svg">
<path d="M36.5885 15.3333H30.9896C30.4687 15.3333 30.013 15.5286 29.6224 15.9192L23.1771 21.7786C22.1354 22.8202 22.1354 24.4478 23.0469 25.4244C23.8932 26.3359 25.5859 26.5963 26.6927 25.6197C26.6927 25.6197 26.6927 25.6197 26.7578 25.6197L31.901 20.8671C32.3568 20.4765 33.0078 20.4765 33.3984 20.9322C33.7891 21.3228 33.7891 21.9739 33.3333 22.3645L31.6406 23.927L41.1458 31.6093C41.276 31.8046 41.4714 31.9348 41.6016 32.1301V19.4999L38.0859 15.9843C37.6953 15.5937 37.1745 15.3333 36.5885 15.3333ZM43.75 19.565V34.1484C43.75 35.2551 44.6615 36.2317 45.8333 36.2317H50V19.565H43.75ZM46.875 34.1484C46.2891 34.1484 45.8333 33.6275 45.8333 33.1067C45.8333 32.5208 46.2891 32.065 46.875 32.065C47.3958 32.065 47.9167 32.5208 47.9167 33.1067C47.9167 33.6275 47.3958 34.1484 46.875 34.1484ZM8.33333 36.1666H12.5C13.6068 36.1666 14.5833 35.2551 14.5833 34.0833V19.565H8.33333V36.1666ZM11.4583 32.065C11.9792 32.065 12.5 32.5208 12.5 33.1067C12.5 33.6275 11.9792 34.1484 11.4583 34.1484C10.8724 34.1484 10.4167 33.6275 10.4167 33.1067C10.4167 32.5208 10.8724 32.065 11.4583 32.065ZM39.7786 33.2369L30.0781 25.3593L28.125 27.1171C26.1719 28.94 23.2422 28.7447 21.4844 26.8567C19.7917 24.9687 19.9219 21.9739 21.8099 20.2161L27.1484 15.3333H21.6797C21.0937 15.3333 20.5729 15.5937 20.1823 15.9843L16.6667 19.4999V34.0833H17.8385L23.6979 39.4218C25.5208 40.9192 28.125 40.5937 29.5573 38.8359H29.6224L30.7292 39.8124C31.7708 40.6588 33.3333 40.5286 34.1797 39.4869L36.1979 36.9478L36.5885 37.2734C37.4349 37.9895 38.737 37.8593 39.5182 36.9478L40.1042 36.1666C40.8203 35.2551 40.6901 33.953 39.7786 33.2369Z" fill="#EC6500"/>
</svg>
