<svg width="55" height="55" viewBox="0 0 55 55" fill="none" xmlns="http://www.w3.org/2000/svg">
<path d="M8.33334 39.2917C8.33334 41.0495 9.70053 42.4167 11.4583 42.4167H42.7083C44.4011 42.4167 45.8333 41.0495 45.8333 39.2917V27.8333H8.33334V39.2917ZM20.8333 34.8646C20.8333 34.474 21.1589 34.0833 21.6146 34.0833H30.4688C30.8594 34.0833 31.25 34.474 31.25 34.8646V37.4687C31.25 37.9245 30.8594 38.25 30.4688 38.25H21.6146C21.1589 38.25 20.8333 37.9245 20.8333 37.4687V34.8646ZM12.5 34.8646C12.5 34.474 12.8255 34.0833 13.2813 34.0833H17.9688C18.3594 34.0833 18.75 34.474 18.75 34.8646V37.4687C18.75 37.9245 18.3594 38.25 17.9688 38.25H13.2813C12.8255 38.25 12.5 37.9245 12.5 37.4687V34.8646ZM45.8333 16.375C45.8333 14.6823 44.4011 13.25 42.7083 13.25H11.4583C9.70053 13.25 8.33334 14.6823 8.33334 16.375V19.5H45.8333V16.375Z" fill="#EC6500"/>
</svg>
