<svg width="55" height="55" viewBox="0 0 55 55" fill="none" xmlns="http://www.w3.org/2000/svg">
<path d="M20.8333 24.7084C20.8333 23.6016 19.8568 22.6251 18.75 22.6251H17.7083C15.3646 22.6251 13.5417 24.5131 13.5417 26.7917V29.9167C13.5417 32.2605 15.3646 34.0834 17.7083 34.0834H18.75C19.8568 34.0834 20.8333 33.172 20.8333 32.0001V24.7084ZM32.2917 34.0834C34.5703 34.0834 36.4583 32.2605 36.4583 29.9167V26.7917C36.4583 24.5131 34.5703 22.6251 32.2917 22.6251H31.25C30.0781 22.6251 29.1667 23.6016 29.1667 24.7084V32.0001C29.1667 33.172 30.0781 34.0834 31.25 34.0834H32.2917ZM25 11.1667C15.6901 11.1667 8.59376 18.9141 8.33334 27.8334V28.8751C8.33334 29.461 8.78907 29.9167 9.37501 29.9167H10.4167C10.9375 29.9167 11.4583 29.461 11.4583 28.8751V27.8334C11.4583 20.4115 17.513 14.2917 25 14.2917C32.4219 14.2917 38.5417 20.4115 38.5417 27.8334H38.4766C38.4766 28.0287 38.5417 38.6407 38.5417 38.6407C38.5417 40.2032 37.3047 41.3751 35.7422 41.3751H29.1667C29.1667 39.6824 27.7344 38.2501 26.0417 38.2501H23.9583C22.2005 38.2501 20.8333 39.6824 20.8333 41.3751C20.8333 43.1329 22.2005 44.5001 23.9583 44.5001H35.7422C38.9974 44.5001 41.6667 41.8959 41.6667 38.6407V27.8334C41.3412 18.9141 34.2448 11.1667 25 11.1667Z" fill="#EC6500"/>
</svg>
