<svg width="55" height="55" viewBox="0 0 55 55" fill="none" xmlns="http://www.w3.org/2000/svg">
<path d="M45.5729 30.2421C46.224 29.2004 45.4427 27.8333 44.2057 27.8333H18.2292C16.6667 27.8333 15.2995 28.6796 14.5833 29.9166L9.89583 37.9895C9.24479 39.0312 10.026 40.3333 11.263 40.3333H37.2396C38.8021 40.3333 40.1693 39.552 40.8854 38.315L45.5729 30.2421ZM18.2292 25.7499H39.5833V22.6249C39.5833 20.9322 38.151 19.4999 36.4583 19.4999H26.0417L21.875 15.3333H11.4583C9.70052 15.3333 8.33333 16.7655 8.33333 18.4583V36.6223L12.8255 28.8749C13.9323 26.9869 15.9505 25.7499 18.2292 25.7499Z" fill="#EC6500"/>
</svg>
