<svg width="55" height="55" viewBox="0 0 55 55" fill="none" xmlns="http://www.w3.org/2000/svg">
<path d="M43.0102 14.2482L28.7231 8.29518C28.2766 8.14636 27.8301 8.07195 27.3837 8.07195C26.8628 8.07195 26.4163 8.14636 25.9698 8.29518L11.6827 14.2482C10.3433 14.8434 9.52475 16.1085 9.52475 17.5223C9.52475 32.3303 18.0077 42.5248 25.9698 45.8733C26.8628 46.2454 27.8301 46.2454 28.7231 45.8733C35.1225 43.1945 45.2426 34.0418 45.2426 17.5223C45.2426 16.1085 44.3496 14.8434 43.0102 14.2482ZM27.3837 41.2597V12.9087L40.4058 18.3408C40.1825 29.577 34.304 37.7624 27.3837 41.2597Z" fill="#EC6500"/>
</svg>
