<svg width="56" height="55" viewBox="0 0 56 55" fill="none" xmlns="http://www.w3.org/2000/svg">
<path d="M50.4332 33.8564H49.2426V25.8199C49.2426 24.927 48.7961 23.9596 48.1264 23.2899L40.7596 15.9231C40.0899 15.2534 39.1225 14.8069 38.2296 14.8069H34.9554V11.2352C34.9554 9.30044 33.3184 7.66338 31.3837 7.66338H7.57178C5.56265 7.66338 4 9.30044 4 11.2352V35.047C4 37.0562 5.56265 38.6188 7.57178 38.6188H8.76238C8.76238 42.5627 11.9621 45.7624 15.9059 45.7624C19.8498 45.7624 23.0495 42.5627 23.0495 38.6188H32.5743C32.5743 42.5627 35.774 45.7624 39.7178 45.7624C43.6617 45.7624 46.8614 42.5627 46.8614 38.6188H50.4332C51.0285 38.6188 51.6238 38.0979 51.6238 37.4282V35.047C51.6238 34.4517 51.0285 33.8564 50.4332 33.8564ZM15.9059 42.1906C13.8968 42.1906 12.3342 40.6279 12.3342 38.6188C12.3342 36.6841 13.8968 35.047 15.9059 35.047C17.8407 35.047 19.4777 36.6841 19.4777 38.6188C19.4777 40.6279 17.8407 42.1906 15.9059 42.1906ZM39.7178 42.1906C37.7087 42.1906 36.146 40.6279 36.146 38.6188C36.146 36.6841 37.7087 35.047 39.7178 35.047C41.6525 35.047 43.2896 36.6841 43.2896 38.6188C43.2896 40.6279 41.6525 42.1906 39.7178 42.1906ZM45.6708 26.7129H34.9554V18.3787H38.2296L45.6708 25.8199V26.7129Z" fill="#EC6500"/>
</svg>
