<svg width="56" height="55" viewBox="0 0 56 55" fill="none" xmlns="http://www.w3.org/2000/svg">
<path d="M47.6708 24.3317H45.4384C44.7687 22.8434 43.8014 21.5784 42.6852 20.4623L44.099 14.8069H41.7178C39.4854 14.8069 37.5507 15.8487 36.2857 17.4114C35.6904 17.337 35.0951 17.1881 34.5742 17.1881H25.0495C19.2454 17.1881 14.483 21.2808 13.3668 26.7129H10.1671C9.05089 26.7129 8.15795 25.7455 8.38118 24.6293C8.53001 23.7364 9.34854 23.1411 10.2415 23.1411H10.3159C10.5391 23.1411 10.7624 22.9923 10.7624 22.6946V21.2064C10.7624 20.9831 10.5391 20.7599 10.3159 20.7599C8.15795 20.7599 6.29764 22.3226 6 24.4061C5.70235 26.9361 7.63706 29.0941 10.1671 29.0941H13.1436C13.1436 33.0379 15.0039 36.4609 17.9059 38.6188V44.5718C17.9059 45.2415 18.4268 45.7624 19.0965 45.7624H23.8589C24.4542 45.7624 25.0495 45.2415 25.0495 44.5718V41H34.5742V44.5718C34.5742 45.2415 35.0951 45.7624 35.7648 45.7624H40.5272C41.1225 45.7624 41.7178 45.2415 41.7178 44.5718V38.6188C42.5363 37.9491 43.3549 37.1306 44.0246 36.2376H47.6708C48.2661 36.2376 48.8614 35.7167 48.8614 35.047V25.5223C48.8614 24.927 48.2661 24.3317 47.6708 24.3317ZM38.146 29.0941C37.4763 29.0941 36.9554 28.5732 36.9554 27.9035C36.9554 27.3082 37.4763 26.7129 38.146 26.7129C38.7413 26.7129 39.3366 27.3082 39.3366 27.9035C39.3366 28.5732 38.7413 29.0941 38.146 29.0941ZM25.0495 14.8069H34.5742C34.9463 14.8069 35.3184 14.8814 35.6904 14.8814C35.6904 14.8814 35.7648 14.8814 35.7648 14.8069C35.7648 10.8631 32.5651 7.66338 28.6213 7.66338C24.6774 7.66338 21.4777 10.8631 21.4777 14.8069C21.4777 15.0302 21.4777 15.179 21.4777 15.3278C22.5939 15.0302 23.7845 14.8069 25.0495 14.8069Z" fill="#EC6500"/>
</svg>
